<?xml version="1.0" encoding="utf-8"?>
<svg viewBox="31.129 68.775 693.962 610.324" xmlns="http://www.w3.org/2000/svg">
  <g class="layer1" transform="matrix(0.736075, 0, 0, 0.668484, -722.966492, -333.460419)" fill-rule="evenodd" stroke="#000" stroke-linecap="round" stroke-linejoin="round" style="">
    <path class="SpockToScissors" d="M1616.186 1439.233l21.94 12.907 21.941 12.907-22.148 12.548-22.148 12.548.207-25.455zm4.192 24.252l-272.575-4.78" stroke-width="10"/>
    <path class="RockToLizard" d="M1153.04 892.917l11.176-21.998 11.176-21.998 14.662 20.104 14.661 20.105-25.837 1.893zm261.153-181.585l-249.775 175.08" stroke-width="9.875"/>
    <path class="PaperToRock" d="M1584.106 707.632l24.97 2.72 24.969 2.721-14.864 20.06-14.863 20.06-10.106-22.78zm9.344 6.775l247.583 181.612" stroke-width="9.822"/>
    <path class="LizardToSpock" d="M1169.217 1327.936l22.186-9.792 22.185-9.791-2.842 24.64-2.84 24.64-19.345-14.849zm30.665 13.252l-95.577-282.12" stroke-width="9.615"/>
    <path class="SpockToRock" d="M1444.795 798.741l18.301-17.468 18.301-17.469 5.934 24.63 5.934 24.63-24.235-7.161zm33.684-24.95L1296.45 1354.42" stroke-width="9.94"/>
    <path class="ScissorsToPaper" d="M1904.598 1106.965l-21.806-8.567-21.806-8.566 17.753-16.17 17.752-16.17 4.054 24.736zm-105.906 252.402l94.072-292.471" stroke-width="9.483"/>
    <path class="PaperToSpock" d="M1311.54 1369.83l11.332-22.794 11.332-22.794 14.074 21.21 14.075 21.21-25.406 1.584zm492.404-382.942L1322.2 1365.369" stroke-width="10"/>
    <path class="ScissorsToLizard" d="M1207.816 1033.34l-9.111-23.769-9.112-23.769 25.14 3.994 25.14 3.994-16.028 19.775zm-8.669-37.183l490.229 360.479" stroke-width="10"/>
    <path class="LizardToPaper" d="M1764.891 993.491l-.273-25.454-.274-25.454 22.18 12.49 22.181 12.49-21.907 12.964zm35.69-26.76l-602.39.574" stroke-width="10"/>
    <path class="RockToScissors" d="M1670.385 1319.35l23.73-9.212 23.731-9.212-3.888 25.157-3.888 25.157-19.842-15.946zM1502.43 770.242l204.182 573.361" stroke-width="10"/>
  </g>
  <path d="M 131.129 310.066 C 131.129 337.682 108.744 360.067 81.129 360.067 C 53.514 360.067 31.129 337.682 31.129 310.066 C 31.129 282.453 53.514 260.067 81.129 260.067 C 108.744 260.067 131.129 282.453 131.129 310.066 Z M 66.273 289.312 C 71.308 287.758 79.257 284.585 81.154 283.642 C 82.85 282.6 85.084 283.409 87.425 283.642 C 86.439 283.542 111.371 293.811 110.88 295.618 M 50.827 349.188 C 50.953 344.862 50.834 340.041 48.913 331.615 C 48.093 327.704 46.869 325.063 48.77 312.624 C 49.857 308.7 50.944 305.285 52.03 298.098 C 52.747 294.812 51.147 292.048 57.274 287.54 C 63.63 284.501 69.466 282.055 77.044 277.619 C 79.157 276.477 81.219 275.571 84.768 277.052 C 93.582 281.038 103.753 285.93 109.427 287.824 C 113.604 289.503 115.511 291.614 111.27 294.981 C 109.996 298.752 109.693 302.165 104.042 301.286 C 93.853 298.699 73.449 294.508 72.863 301.003 C 72.883 305.228 77.4 309.286 84.91 306.459 C 87.721 305.862 91.311 303.787 94.122 302.066 C 102.324 297.932 105.928 307.138 103.405 308.515 L 90.224 318.861 L 78.178 329.348 C 76.994 330.525 75.849 331.742 76.053 334.308 C 75.639 345.107 77.025 351.41 77.823 359.18" fill="none" stroke="#000" stroke-linecap="round" stroke-linejoin="round" style="stroke-width: 4px;"/>
  <path d="M 664.252 315.645 L 665.295 316.73 M 725.091 308.886 C 725.091 336.5 702.705 358.886 675.091 358.886 C 647.477 358.886 625.091 336.5 625.091 308.886 C 625.091 281.272 647.477 258.886 675.091 258.886 C 702.705 258.886 725.091 281.272 725.091 308.886 Z M 648.904 268.893 C 650.612 271.16 652.618 273.608 656.244 275.399 C 668.834 280.777 675.672 283.867 682.144 287.577 C 688.364 291.364 693.479 296.818 699.16 303.551 C 699.909 304.633 701.591 305.831 700.203 309.514 C 703.186 311.477 701.883 314.2 700.161 316.313 C 702.153 323.78 697.768 324.798 692.571 324.612 C 692.109 327.6 690.234 330.267 685.939 329.492 C 674.982 325.229 669.45 319.156 664.252 315.645 L 668.381 323.361 C 670.613 328.687 663.212 330.8 660.999 328.7 C 658.101 325.231 657.9 324.238 648.028 315.437 C 644.629 312.397 643.685 310.205 643.774 307.554 C 644.053 305.617 643.842 303.077 642.648 301.215 C 639.237 297.024 634.049 291.607 629.653 288.509 C 630.503 286.639 631.261 284.779 632.405 282.871 C 634.112 279.833 636.504 276.859 638.801 274.483 C 642.064 271.108 644.434 268.941 647.638 267.362 L 648.904 268.893 Z M 671.843 307.93 C 685.678 318.485 688.736 319.305 692.571 324.612 M 676.002 301.509 C 678.532 303.668 680.52 305.479 686.442 309.825 C 692.662 313.974 696.568 316.008 700.067 317.67 M 679.482 294.991 C 682.145 297.836 684.66 301.065 689.244 303.986 C 692.967 306.739 696.324 308.163 700.203 309.515" stroke="#000" fill="none" stroke-linejoin="round" stroke-linecap="round" style="stroke-width: 4px;"/>
  <path d="M 431.656 118.775 C 431.656 146.389 409.27 168.775 381.655 168.775 C 354.041 168.775 331.655 146.389 331.656 118.775 C 331.656 91.161 354.041 68.775 381.655 68.775 C 409.27 68.775 431.656 91.161 431.656 118.775 Z M 391.604 122.501 C 394.873 123.624 397.336 126.414 399.134 129.954 M 388.388 123.624 C 386.912 129.366 387.615 129.184 387.724 130.617 M 390.838 133.17 C 390.543 130.621 388.568 131.218 387.724 130.617 M 384.329 135.901 C 386.552 132.357 388.187 128.928 393.161 124.9 C 393.753 124.584 394.409 124.836 394.616 125.079 C 395.122 125.622 395.486 126.076 396.045 128.218 C 396.602 130.524 396.756 132.991 396.632 135.569 C 396.498 137.641 395.841 139.345 394.233 140.7 C 391.775 143.194 387.424 145.083 383.334 147.055 M 375.881 121.327 C 375.046 125.826 374.318 130.078 373.89 133.629 C 373.286 138.141 373.282 139.781 373.29 142.579 M 370.521 113.516 C 368.805 118.635 367.929 122.915 367.152 127.095 C 366.656 130.447 366.235 133.8 365.875 137.152 M 364.446 106.063 C 361.497 115.032 361.133 121.224 359.75 127.401 M 411.309 78.854 L 396.658 91.565 C 391.382 91.121 386.194 91.025 381.19 91.667 C 375.487 92.442 370.037 93.695 365.059 95.343 C 361.275 96.697 359.674 98.571 358.729 100.601 C 357.535 103.809 356.9 107.352 356.38 110.964 C 355.689 117.095 355.698 119.897 355.512 123.624 C 355.716 124.617 354.869 125.991 359.746 126.868 L 359.903 129.494 C 360.355 133.244 363.369 134.307 365.824 135.416 L 365.875 137.152 C 366.363 141.087 370.442 141.414 372.767 141.695 C 373.865 143.487 374.027 145.609 377.259 146.647 C 378.922 147.125 380.088 147.286 383.334 147.055 C 383.845 148.117 384.336 149.226 385.376 149.097 C 391.052 148.732 398.912 145.935 404.621 143.38 C 407.692 141.388 411.657 135.588 412.177 131.281 C 412.643 127.133 413.015 123.171 412.942 120.101 L 430.401 107.697" fill="none" stroke="#000" stroke-linecap="round" stroke-linejoin="round" style="stroke-width: 4px;"/>
  <path d="M 607.433 629.099 C 607.433 656.713 585.047 679.099 557.433 679.099 C 529.819 679.099 507.433 656.713 507.433 629.099 C 507.433 601.485 529.819 579.099 557.433 579.099 C 585.047 579.099 607.433 601.485 607.433 629.099 Z M 550.726 653.339 C 560.065 651.945 566.969 649.018 571.205 644.411 M 543.711 643.419 C 557.154 641.567 561.505 640.748 566.953 639.805 C 570.426 639.128 572.532 639.571 572.622 642.214 L 571.205 644.411 C 574.518 644.783 578.18 647.139 576.661 650.009 L 572.481 657.024 M 560.08 616.846 C 560.012 619.357 559.21 622.112 560.151 624.287 C 561.708 626.367 562.268 629.444 563.127 632.223 C 564.711 633.349 565.549 633.42 568.087 631.656 C 569.651 630.455 570.2 628.574 570.426 626.838 C 570.648 624.688 571.007 622.539 571.417 620.389 C 571.915 618.606 575.113 619.46 575.102 620.46 L 575.031 624.145 C 574.068 634.3 579.922 634.457 584.314 636.758 M 605.076 615.925 L 592.463 615.429 C 588.759 612.498 584.476 609.857 579.637 607.493 C 576.481 605.618 573.559 605.734 570.78 607.068 C 566.727 609.145 562.829 611.601 560.08 616.846 L 529.964 607.847 C 525.278 606.048 520.875 610.949 525.925 615.146 C 535.186 620.582 546.387 624.641 554.482 629.389 C 543.058 632.088 531.855 633.014 520.611 634.278 C 517.337 634.949 515.992 643.201 521.39 643.49 L 543.711 643.419 C 544.849 646.846 542.659 650.606 550.726 653.339 C 551.765 655.901 550.877 658.712 557.387 660.567 C 561.87 661.673 566.865 660.641 572.481 657.024 C 580.806 657.621 582.38 657.65 584.243 656.812 C 589.05 654.499 592.306 651.114 594.66 647.104 L 603.659 646.962" fill="none" stroke="#000" stroke-linecap="round" stroke-linejoin="round" style="stroke-width: 4px;"/>
  <path d="M 234.613 613.506 C 234.613 641.12 212.227 663.506 184.612 663.506 C 156.998 663.506 134.612 641.12 134.613 613.506 C 134.613 585.892 156.998 563.506 184.612 563.506 C 212.227 563.506 234.613 585.892 234.613 613.506 Z M 209.393 587.971 C 204.1 596.434 203.154 605.295 200.227 612.237 M 177.197 580.704 C 179.949 585.519 180.651 601.256 182.157 609.898 M 196.783 612.137 C 199.707 611.68 200.988 613.231 202.044 615.094 M 179.252 612.166 C 181.074 609.544 183.055 609.799 185.063 610.536 M 176.06 629.434 C 184.037 628.64 188.632 632.956 190.12 641.963 M 171.458 661.201 L 171.387 649.58 C 163.168 642.18 161.522 639.519 158.773 634.983 C 155.984 630.743 148.09 628.389 145.735 623.787 C 143.588 619.072 145.85 617.081 149.136 616.488 C 152.971 615.83 154.908 616.582 156.364 617.409 C 161.23 620.244 168.209 625.984 170.395 625.133 C 171.565 606.183 170.344 598.655 169.97 587.081 C 169.994 583.137 172.276 580.881 177.197 580.704 C 179.083 574.76 186.646 574.357 187.118 578.861 L 191.299 607.135 L 200.794 583.184 C 202.971 578.728 211.175 581.425 209.393 587.971 C 208.876 591.371 207.759 589.762 207.99 590.577 C 212.993 590.269 214.5 591.731 214.569 594.733 C 205.047 622.676 211.31 617.612 209.935 618.756 C 211.139 617.944 210.219 630.501 209.191 633.53 C 206.651 644.724 203.828 643.457 201.29 647.313 L 201.432 660.351" fill="none" stroke="#000" stroke-linecap="round" stroke-linejoin="round" style="stroke-width: 4px;"/>
</svg>